HIERARCHY
ROOT Hips
{
	OFFSET 0.327225 85.456291 8.060652
	CHANNELS 6 Xposition Yposition Zposition Zrotation Yrotation Xrotation 
	JOINT Spine
	{
		OFFSET 0.000000 8.814246 -2.080107
		CHANNELS 3 Zrotation Yrotation Xrotation
		JOINT Spine1
		{
			OFFSET -0.000000 8.844141 0.000000
			CHANNELS 3 Zrotation Yrotation Xrotation
			JOINT Spine2
			{
				OFFSET 0.000000 11.682268 0.000000
				CHANNELS 3 Zrotation Yrotation Xrotation
				JOINT Spine3
				{
					OFFSET 0.000000 11.746700 0.000000
					CHANNELS 3 Zrotation Yrotation Xrotation
					JOINT Neck
					{
						OFFSET 0.000000 17.658264 0.000000
						CHANNELS 3 Zrotation Yrotation Xrotation
						JOINT Neck1
						{
							OFFSET 0.000000 5.101515 0.000000
							CHANNELS 3 Zrotation Yrotation Xrotation
							JOINT Head
							{
								OFFSET -0.000000 5.101515 -0.000000
								CHANNELS 3 Zrotation Yrotation Xrotation
								JOINT HeadEnd
								{
									OFFSET 0.000000 11.655085 0.000000
									CHANNELS 3 Zrotation Yrotation Xrotation
									End Site
									{
										OFFSET 0.000000 0.000000 0.000000
									}
								}
							}
						}
					}
					JOINT RightShoulder
					{
						OFFSET -2.625389 11.175210 -0.000000
						CHANNELS 3 Zrotation Yrotation Xrotation
						JOINT RightArm
						{
							OFFSET 0.000000 10.434715 0.000000
							CHANNELS 3 Zrotation Yrotation Xrotation
							JOINT RightForeArm
							{
								OFFSET -0.000000 29.628420 -0.000000
								CHANNELS 3 Zrotation Yrotation Xrotation
								JOINT RightHand
								{
									OFFSET 0.000000 22.857611 -0.000000
									CHANNELS 3 Zrotation Yrotation Xrotation
									JOINT RightHandThumb1
									{
										OFFSET -2.867323 3.959563 2.944291
										CHANNELS 3 Zrotation Yrotation Xrotation
										JOINT RightHandThumb2
										{
											OFFSET -0.000000 3.350399 0.000000
											CHANNELS 3 Zrotation Yrotation Xrotation
											JOINT RightHandThumb3
											{
												OFFSET -0.000000 3.756509 0.000000
												CHANNELS 3 Zrotation Yrotation Xrotation
												JOINT RightHandThumb4
												{
													OFFSET -0.000000 3.147345 0.000000
													CHANNELS 3 Zrotation Yrotation Xrotation
													End Site
													{
														OFFSET 0.000000 0.000000 0.000000
													}
												}
											}
										}
									}
									JOINT RightHandIndex1
									{
										OFFSET -0.086752 10.030893 2.345280
										CHANNELS 3 Zrotation Yrotation Xrotation
										JOINT RightHandIndex2
										{
											OFFSET -0.000000 4.061090 -0.000000
											CHANNELS 3 Zrotation Yrotation Xrotation
											JOINT RightHandIndex3
											{
												OFFSET 0.000000 3.248873 -0.000000
												CHANNELS 3 Zrotation Yrotation Xrotation
												JOINT RightHandIndex4
												{
													OFFSET 0.000000 2.639709 -0.000000
													CHANNELS 3 Zrotation Yrotation Xrotation
													End Site
													{
														OFFSET 0.000000 0.000000 0.000000
													}
												}
											}
										}
									}
									JOINT RightHandMiddle1
									{
										OFFSET 0.104102 9.502952 0.006768
										CHANNELS 3 Zrotation Yrotation Xrotation
										JOINT RightHandMiddle2
										{
											OFFSET -0.000000 4.568727 -0.000000
											CHANNELS 3 Zrotation Yrotation Xrotation
											JOINT RightHandMiddle3
											{
												OFFSET -0.000000 3.654981 -0.000000
												CHANNELS 3 Zrotation Yrotation Xrotation
												JOINT RightHandMiddle4
												{
													OFFSET -0.000000 2.741236 -0.000000
													CHANNELS 3 Zrotation Yrotation Xrotation
													End Site
													{
														OFFSET 0.000000 0.000000 0.000000
													}
												}
											}
										}
									}
									JOINT RightHandRing1
									{
										OFFSET 0.086752 8.921708 -2.267442
										CHANNELS 3 Zrotation Yrotation Xrotation
										JOINT RightHandRing2
										{
											OFFSET -0.000000 4.061090 0.000000
											CHANNELS 3 Zrotation Yrotation Xrotation
											JOINT RightHandRing3
											{
												OFFSET 0.000000 3.654981 -0.000000
												CHANNELS 3 Zrotation Yrotation Xrotation
												JOINT RightHandRing4
												{
													OFFSET 0.000000 2.741236 -0.000000
													CHANNELS 3 Zrotation Yrotation Xrotation
													End Site
													{
														OFFSET 0.000000 0.000000 0.000000
													}
												}
											}
										}
									}
									JOINT RightHandPinky1
									{
										OFFSET -0.173504 7.976997 -4.467199
										CHANNELS 3 Zrotation Yrotation Xrotation
										JOINT RightHandPinky2
										{
											OFFSET -0.000000 3.350399 0.000000
											CHANNELS 3 Zrotation Yrotation Xrotation
											JOINT RightHandPinky3
											{
												OFFSET 0.000000 2.842763 -0.000000
												CHANNELS 3 Zrotation Yrotation Xrotation
												JOINT RightHandPinky4
												{
													OFFSET -0.000000 2.639709 0.000000
													CHANNELS 3 Zrotation Yrotation Xrotation
													End Site
													{
														OFFSET 0.000000 0.000000 0.000000
													}
												}
											}
										}
									}
									JOINT RightForeArmEnd
									{
										OFFSET 0.000000 0.000000 0.000000
										CHANNELS 3 Zrotation Yrotation Xrotation
										End Site
										{
											OFFSET 0.000000 0.000000 0.000000
										}
									}
								}
								JOINT RightArmEnd
								{
									OFFSET 0.000000 0.000000 0.000000
									CHANNELS 3 Zrotation Yrotation Xrotation
									End Site
									{
										OFFSET 0.000000 0.000000 0.000000
									}
								}
							}
						}
					}
					JOINT LeftShoulder
					{
						OFFSET 2.625389 11.175210 0.000000
						CHANNELS 3 Zrotation Yrotation Xrotation
						JOINT LeftArm
						{
							OFFSET -0.000000 10.813635 0.000000
							CHANNELS 3 Zrotation Yrotation Xrotation
							JOINT LeftForeArm
							{
								OFFSET 0.000000 28.724781 -0.000000
								CHANNELS 3 Zrotation Yrotation Xrotation
								JOINT LeftHand
								{
									OFFSET 0.644384 25.716167 -0.328871
									CHANNELS 3 Zrotation Yrotation Xrotation
									JOINT LeftHandThumb1
									{
										OFFSET 2.867323 3.959563 2.944291
										CHANNELS 3 Zrotation Yrotation Xrotation
										JOINT LeftHandThumb2
										{
											OFFSET 0.000000 3.350399 -0.000000
											CHANNELS 3 Zrotation Yrotation Xrotation
											JOINT LeftHandThumb3
											{
												OFFSET 0.000000 3.756509 0.000000
												CHANNELS 3 Zrotation Yrotation Xrotation
												JOINT LeftHandThumb4
												{
													OFFSET 0.000000 3.100000 0.000000
													CHANNELS 3 Zrotation Yrotation Xrotation
													End Site
													{
														OFFSET 0.000000 0.000000 0.000000
													}
												}
											}
										}
									}
									JOINT LeftHandIndex1
									{
										OFFSET 0.086752 10.030893 2.345280
										CHANNELS 3 Zrotation Yrotation Xrotation
										JOINT LeftHandIndex2
										{
											OFFSET 0.000000 4.061090 0.000000
											CHANNELS 3 Zrotation Yrotation Xrotation
											JOINT LeftHandIndex3
											{
												OFFSET -0.000000 3.248873 -0.000000
												CHANNELS 3 Zrotation Yrotation Xrotation
												JOINT LeftHandIndex4
												{
													OFFSET -0.000000 2.639709 -0.000000
													CHANNELS 3 Zrotation Yrotation Xrotation
													End Site
													{
														OFFSET 0.000000 0.000000 0.000000
													}
												}
											}
										}
									}
									JOINT LeftHandMiddle1
									{
										OFFSET -0.104102 9.502952 0.006768
										CHANNELS 3 Zrotation Yrotation Xrotation
										JOINT LeftHandMiddle2
										{
											OFFSET 0.000000 4.568727 0.000000
											CHANNELS 3 Zrotation Yrotation Xrotation
											JOINT LeftHandMiddle3
											{
												OFFSET -0.000000 3.654981 -0.000000
												CHANNELS 3 Zrotation Yrotation Xrotation
												JOINT LeftHandMiddle4
												{
													OFFSET -0.000000 2.741236 -0.000000
													CHANNELS 3 Zrotation Yrotation Xrotation
													End Site
													{
														OFFSET 0.000000 0.000000 0.000000
													}
												}
											}
										}
									}
									JOINT LeftHandRing1
									{
										OFFSET -0.086752 8.921708 -2.267442
										CHANNELS 3 Zrotation Yrotation Xrotation
										JOINT LeftHandRing2
										{
											OFFSET 0.000000 4.061090 0.000000
											CHANNELS 3 Zrotation Yrotation Xrotation
											JOINT LeftHandRing3
											{
												OFFSET -0.000000 3.654981 -0.000000
												CHANNELS 3 Zrotation Yrotation Xrotation
												JOINT LeftHandRing4
												{
													OFFSET -0.000000 2.741236 -0.000000
													CHANNELS 3 Zrotation Yrotation Xrotation
													End Site
													{
														OFFSET 0.000000 0.000000 0.000000
													}
												}
											}
										}
									}
									JOINT LeftHandPinky1
									{
										OFFSET 0.173504 7.976997 -4.467199
										CHANNELS 3 Zrotation Yrotation Xrotation
										JOINT LeftHandPinky2
										{
											OFFSET 0.000000 3.350399 0.000000
											CHANNELS 3 Zrotation Yrotation Xrotation
											JOINT LeftHandPinky3
											{
												OFFSET 0.000000 2.842763 0.000000
												CHANNELS 3 Zrotation Yrotation Xrotation
												JOINT LeftHandPinky4
												{
													OFFSET 0.000000 2.639709 -0.000000
													CHANNELS 3 Zrotation Yrotation Xrotation
													End Site
													{
														OFFSET 0.000000 0.000000 0.000000
													}
												}
											}
										}
									}
									JOINT LeftForeArmEnd
									{
										OFFSET 0.000000 0.000000 0.000000
										CHANNELS 3 Zrotation Yrotation Xrotation
										End Site
										{
											OFFSET 0.000000 0.000000 0.000000
										}
									}
								}
								JOINT LeftArmEnd
								{
									OFFSET 0.000000 0.000000 0.000000
									CHANNELS 3 Zrotation Yrotation Xrotation
									End Site
									{
										OFFSET 0.000000 0.000000 0.000000
									}
								}
							}
						}
					}
				}
			}
		}
	}
	JOINT RightUpLeg
	{
		OFFSET -11.289943 0.000000 -0.000000
		CHANNELS 3 Zrotation Yrotation Xrotation
		JOINT RightLeg
		{
			OFFSET -0.000000 -38.200325 -0.000000
			CHANNELS 3 Zrotation Yrotation Xrotation
			JOINT RightFoot
			{
				OFFSET -0.000000 -39.900856 0.000000
				CHANNELS 3 Zrotation Yrotation Xrotation
				JOINT RightToeBase
				{
					OFFSET 0.000000 -0.000000 15.261641
					CHANNELS 3 Zrotation Yrotation Xrotation
					JOINT RightToeBaseEnd
					{
						OFFSET -0.000000 -0.000000 7.370709
						CHANNELS 3 Zrotation Yrotation Xrotation
						End Site
						{
							OFFSET 0.000000 0.000000 0.000000
						}
					}
				}
				JOINT RightLegEnd
				{
					OFFSET 0.000000 0.000000 0.000000
					CHANNELS 3 Zrotation Yrotation Xrotation
					End Site
					{
						OFFSET 0.000000 0.000000 0.000000
					}
				}
			}
			JOINT RightUpLegEnd
			{
				OFFSET 0.000000 0.000000 0.000000
				CHANNELS 3 Zrotation Yrotation Xrotation
				End Site
				{
					OFFSET 0.000000 0.000000 0.000000
				}
			}
		}
	}
	JOINT LeftUpLeg
	{
		OFFSET 11.315661 -0.000000 0.000000
		CHANNELS 3 Zrotation Yrotation Xrotation
		JOINT LeftLeg
		{
			OFFSET -0.000000 -38.200325 -0.000000
			CHANNELS 3 Zrotation Yrotation Xrotation
			JOINT LeftFoot
			{
				OFFSET -0.000000 -39.900856 0.000000
				CHANNELS 3 Zrotation Yrotation Xrotation
				JOINT LeftToeBase
				{
					OFFSET 0.000000 -0.000000 15.261641
					CHANNELS 3 Zrotation Yrotation Xrotation
					JOINT LeftToeBaseEnd
					{
						OFFSET -0.000000 0.000000 7.539996
						CHANNELS 3 Zrotation Yrotation Xrotation
						End Site
						{
							OFFSET 0.000000 0.000000 0.000000
						}
					}
				}
				JOINT LeftLegEnd
				{
					OFFSET 0.000000 0.000000 0.000000
					CHANNELS 3 Zrotation Yrotation Xrotation
					End Site
					{
						OFFSET 0.000000 0.000000 0.000000
					}
				}
			}
			JOINT LeftUpLegEnd
			{
				OFFSET 0.000000 0.000000 0.000000
				CHANNELS 3 Zrotation Yrotation Xrotation
				End Site
				{
					OFFSET 0.000000 0.000000 0.000000
				}
			}
		}
	}
}
MOTION
Frames: 4
Frame Time: 0.016667
-8.517809 86.574562 10.270208 -2.751029 9.506575 -23.179680 3.810728 -0.759111 10.092201 0.321955 -0.221579 1.869136 0.864446 -2.355029 14.749878 -0.877273 -0.452636 9.212619 4.551230 -1.506488 12.086260 -0.457454 -0.183914 -0.734292 0.083711 -0.244605 -20.573425 0.000000 0.000000 0.000000 91.854729 -0.431683 13.724103 51.965462 -28.728703 17.413977 0.095048 15.480978 35.296837 8.347998 19.485195 -1.664736 -4.360785 0.653175 46.748035 0.000012 0.000015 10.269415 0.000020 0.000045 7.504338 0.000028 0.000002 -0.000036 15.222502 1.310210 -7.909019 11.244424 -0.020477 -0.508561 11.130459 0.087991 -0.498799 -0.000031 0.000007 -0.000015 14.267095 0.530899 -9.257063 10.522382 -0.057338 -0.195404 10.435575 0.022665 -0.161921 -0.000018 -0.000125 0.000010 15.342278 -0.698226 -9.820302 11.171576 0.127845 0.221696 11.201864 -0.034041 0.166609 -0.000006 0.000316 -0.000021 15.637318 -1.948824 -11.740918 11.015105 0.218060 0.520815 10.883405 -0.136362 0.404818 -0.000367 0.000006 -0.000027 0.000000 0.000000 0.000000 0.000000 0.000000 0.000000 -89.527611 -0.355529 10.521292 -61.703987 19.212631 5.441156 -0.848660 -10.538676 45.614830 -9.298565 -31.689863 -7.899321 4.745612 -0.705924 46.809689 -0.000013 0.000032 11.095345 0.000147 0.000002 7.903906 0.000289 -0.000003 -0.001456 -14.547793 1.304904 -6.862596 -9.884920 -0.025339 0.451617 -9.932404 0.066997 0.423087 0.000048 0.000507 0.000004 -13.127692 0.540130 -8.573007 -9.180405 -0.067347 0.167465 -9.226859 0.021053 0.150286 0.000257 -0.000024 -0.000091 -13.903835 -0.640848 -9.998713 -9.587807 0.144394 -0.206065 -9.464620 -0.021167 -0.141668 -0.000601 0.000013 -0.000003 -13.625881 -1.884949 -11.697532 -9.480167 0.311901 -0.437028 -9.376362 -0.062756 -0.435683 -0.000460 0.000005 -0.000058 0.000000 0.000000 0.000000 0.000000 0.000000 0.000000 1.452169 -6.612668 23.592264 -0.117575 -0.484764 13.469093 -3.946970 -11.935331 11.584738 -1.043279 1.046201 -15.166243 0.000000 0.000000 0.000000 0.000000 0.000000 0.000000 0.000000 0.000000 0.000000 10.286569 -6.640591 17.348969 0.425617 0.994405 23.832626 -3.706696 3.016578 8.205612 0.931067 -0.971950 -18.669128 0.000000 0.000000 0.000000 0.000000 0.000000 0.000000 0.000000 0.000000 0.000000 
-8.515766 86.577003 10.271891 -2.779636 9.509516 -23.217630 3.814079 -0.761019 10.121162 0.329502 -0.224761 1.893660 0.866709 -2.350037 14.778300 -0.874657 -0.457729 9.175770 4.635931 -1.511060 12.145859 -0.446967 -0.169671 -0.690917 0.070706 -0.250314 -20.496288 0.000000 0.000000 0.000000 91.929153 -0.454701 13.823040 51.358875 -30.524721 18.148409 0.092591 14.741505 33.991703 8.204463 17.411345 -2.409443 -4.376415 0.651170 46.748074 0.000012 0.000015 10.295534 0.000021 0.000045 7.529268 0.000029 0.000002 -0.000036 14.979031 1.303183 -8.192353 11.062936 -0.022645 -0.502771 10.957770 0.085388 -0.491450 -0.000031 0.000007 -0.000015 14.006853 0.528454 -9.532286 10.327991 -0.058029 -0.192974 10.232079 0.022199 -0.159837 -0.000018 -0.000131 0.000011 15.043776 -0.696056 -10.021667 10.960660 0.128720 0.217972 10.991782 -0.033425 0.164049 -0.000007 0.000361 -0.000021 15.264926 -1.945184 -11.840696 10.795958 0.219546 0.513908 10.659899 -0.135450 0.398985 -0.000319 0.000006 -0.000029 0.000000 0.000000 0.000000 0.000000 0.000000 0.000000 -89.586266 -0.368496 10.629148 -61.193504 21.083916 5.977554 -0.823781 -9.616176 44.465359 -8.612902 -29.002720 -8.985624 4.766360 -0.707732 46.817711 -0.000013 0.000032 11.167925 0.000144 0.000002 7.946238 0.000290 -0.000004 -0.001589 -14.336337 1.303007 -7.135139 -9.786921 -0.027897 0.443394 -9.846240 0.064647 0.415819 0.000049 0.000554 0.000005 -12.847039 0.539478 -8.830004 -9.045863 -0.068103 0.164161 -9.090795 0.020350 0.148189 0.000289 -0.000024 -0.000098 -13.492824 -0.640846 -10.179001 -9.387444 0.144982 -0.200459 -9.263157 -0.020295 -0.138680 -0.000586 0.000013 -0.000002 -13.089930 -1.887160 -11.787942 -9.220942 0.313342 -0.418528 -9.118646 -0.059901 -0.425350 -0.000460 0.000005 -0.000058 0.000000 0.000000 0.000000 0.000000 0.000000 0.000000 1.485826 -6.608419 23.579056 -0.116477 -0.484150 13.532179 -3.950685 -11.977835 11.582153 -1.038767 1.046918 -15.161252 0.000000 0.000000 0.000000 0.000000 0.000000 0.000000 0.000000 0.000000 0.000000 10.331660 -6.650221 17.334249 0.425523 0.990356 23.873053 -3.730200 3.033137 8.198152 0.936466 -0.971266 -18.662085 0.000000 0.000000 0.000000 0.000000 0.000000 0.000000 0.000000 0.000000 0.000000 
-8.515210 86.578964 10.275675 -2.810020 9.505378 -23.253977 3.817761 -0.762467 10.151933 0.343268 -0.229788 1.901748 0.864221 -2.339832 14.820989 -0.872834 -0.463881 9.136324 4.725223 -1.534471 12.210354 -0.439141 -0.174462 -0.644828 0.060761 -0.253879 -20.419893 0.000000 0.000000 0.000000 92.009308 -0.477883 13.914535 50.737675 -32.350666 18.922832 0.085771 13.962043 32.718933 8.224907 15.459147 -3.065792 -4.390330 0.649340 46.747417 0.000013 0.000015 10.316923 0.000022 0.000044 7.549848 0.000029 0.000002 -0.000036 14.775309 1.296342 -8.441781 10.907797 -0.024140 -0.498205 10.809503 0.083519 -0.485279 -0.000031 0.000006 -0.000015 13.768776 0.526191 -9.784097 10.155125 -0.058474 -0.191036 10.050802 0.021926 -0.158143 -0.000018 -0.000133 0.000012 14.747854 -0.694154 -10.211602 10.761024 0.129422 0.214618 10.793200 -0.033010 0.161658 -0.000007 0.000413 -0.000021 14.887038 -1.941871 -11.937897 10.582139 0.220439 0.506763 10.440483 -0.135052 0.392960 -0.000279 0.000007 -0.000029 0.000000 0.000000 0.000000 0.000000 0.000000 0.000000 -89.648705 -0.378762 10.743866 -60.671658 23.067724 6.534033 -0.789920 -8.637097 43.357544 -8.167891 -26.419327 -9.905720 4.778588 -0.708870 46.823608 -0.000012 0.000032 11.226041 0.000144 0.000002 7.977577 0.000294 -0.000005 -0.001694 -14.151550 1.301707 -7.403937 -9.706503 -0.030074 0.435370 -9.776233 0.062723 0.408448 0.000049 0.000599 0.000005 -12.583987 0.539099 -9.092411 -8.922523 -0.068740 0.160824 -8.966781 0.019789 0.145966 0.000313 -0.000025 -0.000101 -13.067340 -0.641174 -10.378355 -9.188398 0.145464 -0.194729 -9.062272 -0.019596 -0.135464 -0.000573 0.000013 -0.000002 -12.516110 -1.889569 -11.903598 -8.954082 0.314453 -0.398604 -8.853798 -0.057379 -0.413219 -0.000459 0.000005 -0.000059 0.000000 0.000000 0.000000 0.000000 0.000000 0.000000 1.520076 -6.601782 23.562527 -0.115207 -0.483214 13.598743 -3.956230 -12.023921 11.577960 -1.034383 1.046670 -15.156334 0.000000 0.000000 0.000000 0.000000 0.000000 0.000000 0.000000 0.000000 0.000000 10.379822 -6.657695 17.318562 0.425548 0.986908 23.914047 -3.757544 3.046601 8.183295 0.942325 -0.971115 -18.652515 0.000000 0.000000 0.000000 0.000000 0.000000 0.000000 0.000000 0.000000 0.000000 
-8.516771 86.580536 10.281844 -2.842453 9.493642 -23.288082 3.820111 -0.763046 10.184566 0.364150 -0.237232 1.892139 0.855007 -2.324359 14.878462 -0.869570 -0.470490 9.093334 4.819274 -1.576471 12.277452 -0.432343 -0.196396 -0.598093 0.054635 -0.255156 -20.348948 0.000000 0.000000 0.000000 92.092491 -0.500436 13.994149 50.117077 -34.178188 19.725849 0.073402 13.161179 31.505424 8.430163 13.668124 -3.636909 -4.400999 0.647524 46.745441 0.000014 0.000015 10.330141 0.000023 0.000044 7.562652 0.000030 0.000002 -0.000036 14.640737 1.290044 -8.651561 10.791725 -0.024718 -0.495343 10.697174 0.082655 -0.481023 -0.000031 0.000006 -0.000015 13.580194 0.524271 -10.009174 10.013729 -0.058634 -0.189715 9.903078 0.021878 -0.156963 -0.000018 -0.000128 0.000013 14.477541 -0.692587 -10.389915 10.580537 0.130038 0.211682 10.614147 -0.032802 0.159367 -0.000007 0.000459 -0.000021 14.526345 -1.938952 -12.036399 10.380277 0.220935 0.499113 10.231528 -0.135083 0.386538 -0.000247 0.000007 -0.000027 0.000000 0.000000 0.000000 0.000000 0.000000 0.000000 -89.711624 -0.386040 10.861777 -60.153645 25.139654 7.097641 -0.744858 -7.626334 42.341129 -8.004161 -23.968416 -10.644831 4.780420 -0.709360 46.826912 -0.000012 0.000032 11.265144 0.000147 0.000002 7.995069 0.000306 -0.000006 -0.001771 -14.018274 1.301309 -7.666835 -9.655210 -0.031682 0.428053 -9.732610 0.061456 0.401569 0.000050 0.000635 0.000006 -12.362606 0.539181 -9.358678 -8.820770 -0.069252 0.157598 -8.864462 0.019422 0.143665 0.000327 -0.000025 -0.000099 -12.644877 -0.641961 -10.598759 -8.999281 0.145958 -0.189043 -8.870831 -0.019126 -0.132090 -0.000569 0.000013 -0.000002 -11.917913 -1.892406 -12.049899 -8.686751 0.315328 -0.377657 -8.588230 -0.055298 -0.399024 -0.000461 0.000005 -0.000059 0.000000 0.000000 0.000000 0.000000 0.000000 0.000000 1.556221 -6.592685 23.542816 -0.113816 -0.481988 13.665171 -3.965550 -12.072227 11.575151 -1.030324 1.045399 -15.151085 0.000000 0.000000 0.000000 0.000000 0.000000 0.000000 0.000000 0.000000 0.000000 10.432381 -6.659027 17.305956 0.425593 0.983728 23.952398 -3.789589 3.059036 8.159026 0.948925 -0.970911 -18.638472 0.000000 0.000000 0.000000 0.000000 0.000000 0.000000 0.000000 0.000000 0.000000 
